<svg width="28" height="22" viewBox="0 0 28 22" fill="none" xmlns="http://www.w3.org/2000/svg">
<path d="M4.86181 0H23.024C24.1356 0 25.2017 0.46357 25.9877 1.28873C26.7737 2.11389 27.2153 3.23305 27.2153 4.4V17.6C27.2153 18.767 26.7737 19.8861 25.9877 20.7113C25.2017 21.5364 24.1356 22 23.024 22H4.86181C3.75021 22 2.68415 21.5364 1.89813 20.7113C1.11211 19.8861 0.670532 18.767 0.670532 17.6V4.4C0.670532 3.23305 1.11211 2.11389 1.89813 1.28873C2.68415 0.46357 3.75021 0 4.86181 0ZM4.86181 1.46667C4.16326 1.46667 3.54854 1.716 3.07353 2.156L13.9429 9.53333L24.8123 2.156C24.3373 1.716 23.7226 1.46667 23.024 1.46667H4.86181ZM13.9429 11.308L2.24925 3.344C2.13748 3.66667 2.06762 4.03333 2.06762 4.4V17.6C2.06762 18.378 2.36201 19.1241 2.88602 19.6742C3.41003 20.2243 4.12075 20.5333 4.86181 20.5333H23.024C23.7651 20.5333 24.4758 20.2243 24.9998 19.6742C25.5238 19.1241 25.8182 18.378 25.8182 17.6V4.4C25.8182 4.03333 25.7483 3.66667 25.6366 3.344L13.9429 11.308Z" fill="#CFCFCF"/>
</svg>
