<svg width="26" height="29" viewBox="0 0 26 29" fill="none" xmlns="http://www.w3.org/2000/svg">
<path d="M12.9638 7.19671e-08C13.7945 -0.000162366 14.5997 0.27466 15.2432 0.777955C15.8867 1.28125 16.329 1.98211 16.4951 2.7619H20.8912C22.038 2.7619 23.1379 3.19838 23.9488 3.97532C24.7597 4.75226 25.2153 5.80601 25.2153 6.90476V24.8571C25.2153 25.9559 24.7597 27.0096 23.9488 27.7866C23.1379 28.5635 22.038 29 20.8912 29H5.03644C3.88963 29 2.7898 28.5635 1.97888 27.7866C1.16797 27.0096 0.712402 25.9559 0.712402 24.8571V6.90476C0.712402 5.80601 1.16797 4.75226 1.97888 3.97532C2.7898 3.19838 3.88963 2.7619 5.03644 2.7619H9.43254C9.59867 1.98211 10.0409 1.28125 10.6844 0.777955C11.3279 0.27466 12.1331 -0.000162366 12.9638 7.19671e-08ZM14.9961 2.7619C14.8479 2.35891 14.5728 2.00991 14.2088 1.76304C13.8448 1.51618 13.4098 1.3836 12.9638 1.3836C12.5179 1.3836 12.0829 1.51618 11.7189 1.76304C11.3549 2.00991 11.0798 2.35891 10.9315 2.7619H14.9961ZM5.03644 4.14286C4.2719 4.14286 3.53868 4.43384 2.99807 4.9518C2.45746 5.46976 2.15375 6.17226 2.15375 6.90476V24.8571C2.15375 25.5896 2.45746 26.2921 2.99807 26.8101C3.53868 27.3281 4.2719 27.619 5.03644 27.619H20.8912C21.6558 27.619 22.389 27.3281 22.9296 26.8101C23.4702 26.2921 23.7739 25.5896 23.7739 24.8571V6.90476C23.7739 6.17226 23.4702 5.46976 22.9296 4.9518C22.389 4.43384 21.6558 4.14286 20.8912 4.14286H19.4499V8.28571H6.47778V4.14286H5.03644ZM7.91912 4.14286V6.90476H18.0085V4.14286H7.91912Z" fill="#CFCFCF"/>
</svg>
