<svg width="30" height="28" viewBox="0 0 30 28" fill="none" xmlns="http://www.w3.org/2000/svg">
<path d="M14.9639 1.47368C11.5721 1.47368 8.3192 2.79342 5.92084 5.14256C3.52248 7.4917 2.17509 10.6778 2.17509 14C2.17509 17.3222 3.52248 20.5083 5.92084 22.8574C8.3192 25.2066 11.5721 26.5263 14.9639 26.5263C16.6433 26.5263 18.3063 26.2023 19.8579 25.5728C21.4095 24.9433 22.8193 24.0206 24.0069 22.8574C25.1944 21.6943 26.1365 20.3134 26.7792 18.7936C27.4218 17.2739 27.7526 15.645 27.7526 14C27.7526 10.6778 26.4053 7.4917 24.0069 5.14256C21.6085 2.79342 18.3557 1.47368 14.9639 1.47368ZM14.9639 0C18.7547 0 22.3903 1.475 25.0708 4.1005C27.7513 6.72601 29.2572 10.287 29.2572 14C29.2572 17.713 27.7513 21.274 25.0708 23.8995C22.3903 26.525 18.7547 28 14.9639 28C11.173 28 7.53747 26.525 4.85695 23.8995C2.17643 21.274 0.670532 17.713 0.670532 14C0.670532 10.287 2.17643 6.72601 4.85695 4.1005C7.53747 1.475 11.173 0 14.9639 0ZM14.2116 20.6316H15.7161V23.5789H14.2116V20.6316ZM14.9639 4.42105C16.3605 4.42105 17.6999 4.96447 18.6875 5.93177C19.675 6.89906 20.2298 8.21099 20.2298 9.57895C20.2298 10.9053 19.1766 11.7895 18.0633 12.7916L16.664 14.1179C15.7763 15.1053 15.671 16.9916 15.7161 17.64V17.6842H14.2116C14.2116 17.6105 14.0611 14.7958 15.5206 13.1453L17.0703 11.6863C17.973 10.9053 18.7253 10.2421 18.7253 9.57895C18.7253 8.60183 18.329 7.66474 17.6236 6.97382C16.9182 6.28289 15.9615 5.89474 14.9639 5.89474C13.9663 5.89474 13.0096 6.28289 12.3042 6.97382C11.5988 7.66474 11.2025 8.60183 11.2025 9.57895H9.6979C9.6979 8.21099 10.2527 6.89906 11.2403 5.93177C12.2278 4.96447 13.5672 4.42105 14.9639 4.42105Z" fill="#CFCFCF"/>
</svg>
