<svg width="32" height="8" viewBox="0 0 32 8" fill="none" xmlns="http://www.w3.org/2000/svg">
<path d="M23.642 3.75C23.642 2.75544 24.0453 1.80161 24.7633 1.09835C25.4813 0.395089 26.4551 0 27.4705 0C28.4859 0 29.4597 0.395089 30.1777 1.09835C30.8957 1.80161 31.2991 2.75544 31.2991 3.75C31.2991 4.74456 30.8957 5.69839 30.1777 6.40165C29.4597 7.10491 28.4859 7.5 27.4705 7.5C26.4551 7.5 25.4813 7.10491 24.7633 6.40165C24.0453 5.69839 23.642 4.74456 23.642 3.75ZM12.1562 3.75C12.1562 2.75544 12.5596 1.80161 13.2776 1.09835C13.9956 0.395089 14.9694 0 15.9848 0C17.0002 0 17.974 0.395089 18.692 1.09835C19.41 1.80161 19.8134 2.75544 19.8134 3.75C19.8134 4.74456 19.41 5.69839 18.692 6.40165C17.974 7.10491 17.0002 7.5 15.9848 7.5C14.9694 7.5 13.9956 7.10491 13.2776 6.40165C12.5596 5.69839 12.1562 4.74456 12.1562 3.75ZM0.670532 3.75C0.670532 2.75544 1.0739 1.80161 1.79189 1.09835C2.50989 0.395089 3.4837 0 4.4991 0C5.5145 0 6.48832 0.395089 7.20631 1.09835C7.92431 1.80161 8.32767 2.75544 8.32767 3.75C8.32767 4.74456 7.92431 5.69839 7.20631 6.40165C6.48832 7.10491 5.5145 7.5 4.4991 7.5C3.4837 7.5 2.50989 7.10491 1.79189 6.40165C1.0739 5.69839 0.670532 4.74456 0.670532 3.75ZM4.4991 1.875C3.9914 1.875 3.5045 2.07254 3.1455 2.42418C2.7865 2.77581 2.58482 3.25272 2.58482 3.75C2.58482 4.24728 2.7865 4.72419 3.1455 5.07582C3.5045 5.42746 3.9914 5.625 4.4991 5.625C5.0068 5.625 5.49371 5.42746 5.85271 5.07582C6.21171 4.72419 6.41339 4.24728 6.41339 3.75C6.41339 3.25272 6.21171 2.77581 5.85271 2.42418C5.49371 2.07254 5.0068 1.875 4.4991 1.875ZM15.9848 1.875C15.4771 1.875 14.9902 2.07254 14.6312 2.42418C14.2722 2.77581 14.0705 3.25272 14.0705 3.75C14.0705 4.24728 14.2722 4.72419 14.6312 5.07582C14.9902 5.42746 15.4771 5.625 15.9848 5.625C16.4925 5.625 16.9794 5.42746 17.3384 5.07582C17.6974 4.72419 17.8991 4.24728 17.8991 3.75C17.8991 3.25272 17.6974 2.77581 17.3384 2.42418C16.9794 2.07254 16.4925 1.875 15.9848 1.875ZM27.4705 1.875C26.9628 1.875 26.4759 2.07254 26.1169 2.42418C25.7579 2.77581 25.5562 3.25272 25.5562 3.75C25.5562 4.24728 25.7579 4.72419 26.1169 5.07582C26.4759 5.42746 26.9628 5.625 27.4705 5.625C27.9782 5.625 28.4651 5.42746 28.8241 5.07582C29.1831 4.72419 29.3848 4.24728 29.3848 3.75C29.3848 3.25272 29.1831 2.77581 28.8241 2.42418C28.4651 2.07254 27.9782 1.875 27.4705 1.875Z" fill="#CFCFCF"/>
</svg>
